<?xml version="1.0" encoding="iso-8859-1"?>
<!-- Generator: Adobe Illustrator 25.2.1, SVG Export Plug-In . SVG Version: 6.00 Build 0)  -->
<svg fill="#40C057" version="1.1" id="Layer_1" xmlns="http://www.w3.org/2000/svg" xmlns:xlink="http://www.w3.org/1999/xlink" x="0px" y="0px"
	 viewBox="0 0 64 64" style="enable-background:new 0 0 64 64;" xml:space="preserve">
<path d="M60,32l-5.587-6.005L56.249,18l-7.842-2.407L46,7.751l-7.995,1.836L32,4l-6.005,5.587L18,7.751l-2.408,7.842L7.751,18
	l1.836,7.994L4,32l5.587,6.005l-1.836,7.994l7.842,2.408L18,56.248l7.994-1.836L32,60l6.005-5.587l7.994,1.836l2.407-7.842
	L56.248,46l-1.836-7.994L60,32z M29.538,41.998l-10.409-9.253l2.657-2.99l7.591,6.747L41.457,23.25l3.414,3.414L29.538,41.998z"/>
</svg>